<svg xmlns="http://www.w3.org/2000/svg" xmlns:xlink="http://www.w3.org/1999/xlink" width="512" zoomAndPan="magnify" viewBox="0 0 384 383.999986" height="512" preserveAspectRatio="xMidYMid meet" version="1.0"><rect x="-38.4" width="460.8" fill="#ffffff" y="-38.399999" height="460.799983" fill-opacity="1"/><rect x="-38.4" width="460.8" fill="#121212" y="-38.399999" height="460.799983" fill-opacity="1"/><path fill="#3dcf8e" d="M 239.523438 35.878906 C 241.332031 28.640625 237.898438 21.113281 231.246094 17.734375 C 224.589844 14.355469 216.488281 16.023438 211.707031 21.757812 L 51.707031 213.757812 C 47.734375 218.527344 46.878906 225.164062 49.511719 230.789062 C 52.144531 236.40625 57.792969 240 64 240 L 171.507812 240 L 144.476562 348.121094 C 142.667969 355.359375 146.101562 362.886719 152.757812 366.265625 C 159.410156 369.644531 167.515625 367.976562 172.292969 362.242188 L 332.292969 170.242188 C 336.265625 165.472656 337.125 158.835938 334.488281 153.214844 C 331.855469 147.589844 326.207031 144 320 144 L 212.492188 144 Z M 239.523438 35.878906 " fill-opacity="1" fill-rule="nonzero"/></svg>
