<svg xmlns="http://www.w3.org/2000/svg" viewBox="0 0 384 384">
  <rect width="384" height="384" rx="80" fill="#121212"/>
  <path
    fill="#3dcf8e"
    fill-rule="nonzero"
    d="M239.523 35.879c1.809-7.238-1.625-14.765-8.277-18.144-6.657-3.379-14.758-1.711-19.539 4.023L51.707 213.758c-3.973 4.77-4.829 11.407-2.196 17.031C52.144 236.406 57.793 240 64 240h107.508l-27.031 108.121c-1.809 7.238 1.624 14.765 8.28 18.144 6.653 3.379 14.758 1.711 19.535-4.023l160-192c3.973-4.77 4.832-11.406 2.196-17.027C331.855 147.59 326.207 144 320 144H212.492Z"
  />
</svg>
